<?xml version="1.0" standalone="no"?>
<!DOCTYPE svg PUBLIC "-//W3C//DTD SVG 20010904//EN"
 "http://www.w3.org/TR/2001/REC-SVG-20010904/DTD/svg10.dtd">
<svg version="1.0" xmlns="http://www.w3.org/2000/svg"
 width="2800.000000pt" height="2000.000000pt" viewBox="0 0 2800.000000 2000.000000"
 preserveAspectRatio="xMidYMid meet">

<g transform="translate(0.000000,2000.000000) scale(0.100000,-0.100000)"
fill="#000000" stroke="none">
<path d="M9256 18442 c-9 -14 -92 -288 -131 -432 -21 -74 -46 -160 -56 -191
-10 -31 -30 -105 -44 -164 -22 -92 -66 -249 -83 -293 -3 -10 8 -12 49 -10 l54
3 37 148 c20 82 38 150 40 151 1 2 89 6 194 9 l190 5 11 -26 c6 -15 32 -81 57
-146 25 -65 51 -125 57 -132 8 -9 34 -14 79 -14 l69 0 -90 178 c-77 153 -180
366 -225 467 -7 17 -28 71 -47 120 -19 50 -55 133 -79 185 -25 52 -48 107 -52
123 -6 27 -20 35 -30 19z m88 -397 c32 -77 60 -145 62 -151 6 -14 -62 -24
-157 -24 -57 0 -69 3 -69 16 0 13 48 183 86 303 8 23 18 3 78 -144z"/>
<path d="M10120 18424 c-117 -41 -192 -134 -236 -294 -26 -92 -25 -336 0 -435
42 -163 124 -276 240 -331 63 -31 79 -34 157 -34 79 0 93 3 150 33 105 54 195
192 187 286 l-3 36 -100 22 c-130 30 -145 28 -170 -21 -40 -77 -101 -68 -143
21 -26 55 -27 65 -27 218 0 144 2 165 22 208 35 76 99 81 160 11 18 -20 36
-34 41 -33 29 11 161 116 161 129 1 24 -65 107 -111 140 -23 17 -64 37 -91 45
-65 19 -179 18 -237 -1z"/>
<path d="M12123 18423 c-3 -6 -3 -22 -1 -35 3 -22 7 -23 83 -23 l80 0 0 -125
c-1 -69 -4 -295 -9 -502 l-7 -378 240 0 241 0 6 24 c3 13 1 81 -5 150 -6 70
-11 284 -11 476 l0 349 83 3 82 3 3 39 3 38 -392 -3 c-288 -3 -393 -7 -396
-16z"/>
<path d="M13334 18426 c-135 -43 -262 -206 -301 -390 -29 -136 2 -339 73 -485
54 -109 152 -197 230 -205 13 -2 27 -6 31 -9 12 -12 118 -7 177 8 162 42 263
167 307 377 23 114 24 185 3 285 -43 209 -153 377 -273 418 -54 18 -190 19
-247 1z m213 -97 c125 -59 197 -225 197 -449 -1 -228 -65 -376 -190 -440 -40
-21 -63 -25 -129 -25 -87 0 -138 19 -184 69 -13 14 -28 23 -34 19 -6 -3 -7 -1
-4 4 4 6 -4 31 -18 55 -43 77 -67 190 -68 318 -1 163 25 243 119 362 61 75 97
104 139 111 49 8 127 -3 172 -24z"/>
<path d="M14745 18431 c-83 -21 -226 -124 -210 -152 5 -8 4 -10 -3 -5 -19 11
-54 -73 -60 -141 -4 -53 -1 -70 22 -116 32 -67 71 -102 194 -179 156 -96 222
-173 222 -256 0 -59 -12 -77 -65 -98 -86 -33 -207 -1 -279 73 l-35 36 -40 -44
c-23 -23 -41 -46 -41 -49 0 -14 75 -92 114 -119 71 -49 142 -64 280 -59 140 6
207 26 275 84 69 59 86 103 85 214 -1 130 -26 194 -108 275 -60 59 -91 78
-210 130 -119 51 -164 108 -151 191 8 56 34 78 93 78 57 -1 103 -23 200 -98
40 -31 76 -56 80 -56 10 1 59 72 71 103 9 24 6 30 -37 67 -109 94 -286 148
-397 121z"/>
<path d="M15605 18426 c-131 -41 -217 -157 -251 -337 -20 -103 -14 -314 10
-404 22 -80 69 -179 100 -210 14 -14 23 -25 20 -25 -14 0 70 -63 117 -87 42
-22 71 -28 134 -31 45 -2 99 1 121 7 60 16 129 65 168 118 40 55 79 159 74
200 -3 26 -8 29 -83 46 -44 10 -100 21 -125 24 -46 5 -46 5 -65 -37 -37 -82
-107 -75 -147 13 -21 48 -23 66 -23 222 0 185 9 228 57 259 34 23 85 6 125
-41 25 -29 36 -36 47 -28 66 46 156 119 156 127 0 20 -83 120 -119 144 -22 14
-60 32 -87 40 -57 17 -174 17 -229 0z"/>
<path d="M17560 18424 c-102 -37 -217 -157 -261 -273 -42 -112 -54 -203 -40
-312 16 -131 34 -200 76 -284 80 -164 201 -236 374 -221 96 8 168 42 238 113
60 60 91 116 124 223 20 63 24 96 23 205 0 114 -4 140 -28 215 -15 47 -41 110
-58 141 -34 66 -119 159 -169 185 -48 25 -217 30 -279 8z m215 -94 c129 -57
215 -268 202 -490 -11 -168 -48 -271 -128 -352 -33 -33 -62 -51 -100 -62 -234
-70 -397 114 -402 454 -3 162 36 266 148 398 29 35 73 64 109 73 42 10 123 1
171 -21z"/>
<path d="M8281 18419 c-24 -5 -45 -10 -47 -11 -1 -2 -4 -242 -6 -533 l-3 -530
182 -3 c206 -3 295 10 362 53 61 38 81 76 81 158 0 122 -76 229 -207 294 -50
24 -54 28 -37 37 43 24 120 112 132 152 17 59 15 195 -4 246 -22 58 -84 114
-147 133 -56 16 -231 19 -306 4z m282 -40 c86 -24 137 -106 137 -222 0 -90
-17 -132 -72 -182 -47 -42 -102 -67 -180 -81 l-38 -6 0 159 c0 88 3 201 6 251
l7 92 51 0 c28 0 68 -5 89 -11z m28 -557 c97 -42 150 -112 168 -220 24 -148
-54 -221 -252 -237 -40 -3 -77 -2 -84 2 -8 6 -12 76 -13 233 -1 124 -2 231 -1
239 1 20 122 8 182 -17z"/>
<path d="M17007 18348 c-4 -46 -7 -156 -7 -245 l0 -163 -276 0 -276 0 6 143
c3 78 7 182 8 232 l3 89 -38 9 c-22 5 -66 6 -105 1 l-67 -9 0 -525 0 -525 89
-3 c49 -2 93 1 99 7 5 5 10 115 11 258 l1 248 268 3 267 2 0 -255 c0 -218 2
-256 15 -261 19 -8 67 4 61 15 -8 13 13 860 24 955 6 49 9 90 8 91 -2 2 -21 6
-44 9 l-41 7 -6 -83z"/>
<path d="M18463 18405 c-58 -29 -131 -103 -162 -162 -97 -191 -88 -582 18
-766 61 -107 147 -157 270 -157 147 0 253 114 312 335 18 67 22 108 22 245 0
178 -15 276 -54 353 -61 119 -138 169 -269 175 -76 3 -90 1 -137 -23z m171
-428 c15 -21 22 -47 24 -102 6 -114 -21 -175 -78 -175 -44 0 -65 38 -64 119 0
79 7 152 12 146 3 -2 14 7 24 21 25 31 54 28 82 -9z"/>
<path d="M19116 18409 c-5 -15 -14 -414 -19 -818 l-3 -254 260 6 c144 4 320 7
391 7 l131 0 -7 73 c-4 39 -8 105 -8 144 l-1 73 -322 2 -323 3 2 383 2 382
-34 0 c-18 0 -40 3 -49 6 -9 3 -18 0 -20 -7z"/>
<path d="M10787 18388 c-3 -12 -9 -252 -13 -531 l-7 -508 99 3 99 3 -4 59 c-2
33 0 115 4 183 l7 124 43 -48 c93 -105 132 -151 168 -201 21 -28 43 -50 48
-47 5 4 6 0 3 -8 -3 -8 10 -27 31 -46 26 -23 45 -31 73 -31 67 0 202 13 202
19 0 8 -60 79 -125 151 -28 30 -71 80 -95 110 -25 30 -84 97 -132 150 -48 52
-88 102 -88 110 0 9 38 53 84 99 56 56 82 89 78 99 -3 10 -1 13 6 9 13 -9 55
47 44 58 -4 5 -2 5 5 1 14 -8 36 27 25 39 -4 5 -2 5 4 2 12 -7 61 52 56 68 -2
6 -1 7 3 3 10 -9 81 61 77 76 -2 6 0 8 4 3 8 -7 64 40 64 55 0 4 -15 8 -32 8
-27 0 -40 -9 -73 -50 -41 -50 -275 -307 -399 -437 -38 -40 -72 -70 -75 -67 -3
3 -4 129 -3 280 l4 274 -60 0 c-33 0 -73 3 -89 6 -26 5 -31 3 -36 -18z"/>
<path d="M4459 15955 c-144 -24 -578 -160 -763 -239 -414 -177 -665 -423 -889
-871 -108 -216 -165 -380 -233 -665 -37 -156 -40 -303 -6 -371 32 -65 82 -139
94 -139 6 0 28 20 49 44 44 49 127 96 172 96 18 0 42 -11 63 -30 86 -75 187
-45 357 109 74 66 105 85 173 106 58 17 64 4 13 -30 -89 -63 -202 -212 -231
-309 l-11 -34 -97 2 c-83 1 -101 -2 -119 -18 -28 -25 -27 -40 5 -65 22 -17 41
-21 109 -21 l82 0 7 -73 c8 -94 39 -220 69 -288 47 -104 161 -205 314 -276 70
-33 88 -37 178 -41 72 -3 118 1 165 13 175 45 367 193 455 349 52 94 69 171
62 294 l-6 104 53 24 c106 48 209 67 336 61 132 -6 214 -28 304 -82 32 -19 64
-35 70 -35 7 0 11 -28 12 -83 1 -270 214 -543 478 -613 121 -32 305 -7 429 58
180 95 326 339 327 546 l0 62 75 0 c63 0 76 3 85 19 5 11 10 24 10 30 0 21
-33 41 -68 41 -20 0 -53 3 -72 6 -34 6 -37 9 -54 70 -10 35 -32 85 -47 110
-16 25 -31 50 -32 55 -1 5 43 10 98 12 80 3 113 9 166 30 110 45 221 34 329
-32 28 -17 52 -31 54 -31 3 0 14 26 27 58 31 81 37 225 14 328 -66 300 -295
715 -608 1102 -223 276 -621 502 -1010 572 -155 28 -329 29 -417 1 -36 -12
-71 -25 -78 -30 -9 -5 -30 2 -62 24 -91 61 -253 80 -431 50z m-277 -1372 c31
-73 126 -210 175 -252 55 -49 114 -64 208 -56 l70 7 70 -54 c86 -66 173 -122
222 -144 62 -26 158 -23 227 9 76 35 127 34 224 -2 42 -17 95 -33 117 -36 55
-9 75 -15 75 -23 0 -4 -20 -20 -45 -35 -106 -68 -209 -187 -237 -276 -7 -22
-16 -41 -20 -41 -3 0 -39 18 -80 39 -95 51 -189 71 -328 71 -167 0 -263 -24
-422 -108 -3 -1 -11 12 -17 31 -19 56 -108 182 -158 225 -27 21 -67 49 -89 60
-40 20 -54 42 -54 87 0 11 -12 32 -27 46 -16 15 -35 37 -44 50 -15 22 -24 24
-124 26 -60 2 -110 5 -112 7 -10 10 99 67 140 72 25 4 60 15 76 25 58 35 103
134 117 259 4 33 9 60 11 60 2 0 13 -21 25 -47z m1928 -634 c189 -95 280 -246
280 -469 0 -136 -70 -291 -181 -402 -155 -155 -454 -166 -646 -24 -121 89
-192 195 -228 341 -22 90 -15 164 28 275 27 72 42 95 97 150 65 66 165 127
253 155 28 9 90 13 182 12 l140 -1 75 -37z m-2090 -19 c171 -57 278 -168 332
-343 32 -105 23 -231 -21 -322 -60 -122 -209 -256 -343 -307 -31 -12 -88 -22
-139 -25 -107 -7 -184 16 -292 86 -81 53 -123 100 -166 188 -48 97 -64 174
-59 293 4 94 8 113 38 174 67 141 197 242 355 276 66 15 223 4 295 -20z"/>
<path d="M5820 13619 c-130 -52 -177 -221 -94 -340 40 -58 93 -83 179 -83 106
0 183 50 222 141 21 51 17 142 -8 183 -27 43 -41 55 -104 85 -54 27 -147 33
-195 14z"/>
<path d="M3796 13588 c-77 -21 -146 -118 -146 -204 1 -44 32 -105 73 -141 86
-75 218 -70 303 12 37 35 43 47 49 99 10 78 -7 130 -59 182 -59 60 -129 76
-220 52z"/>
<path d="M19887 15600 c-55 -10 -89 -22 -198 -74 -42 -20 -110 -43 -150 -51
-220 -42 -329 -138 -374 -327 -10 -42 -15 -117 -15 -224 0 -117 -6 -195 -21
-285 -11 -67 -18 -136 -15 -151 11 -54 71 -161 116 -207 25 -26 86 -70 136
-98 78 -45 96 -61 134 -116 63 -94 79 -101 237 -105 l131 -4 -25 -46 c-23 -44
-24 -53 -18 -149 l6 -101 -56 -111 c-110 -215 -103 -284 63 -594 51 -95 52
-125 10 -220 -22 -50 -33 -92 -36 -138 -6 -95 13 -127 134 -220 119 -91 149
-134 168 -241 14 -85 36 -126 86 -163 59 -43 131 -59 239 -51 53 4 105 9 117
12 19 5 29 -8 78 -101 66 -123 127 -213 188 -277 14 -15 24 -28 21 -28 -14 0
172 -173 240 -224 151 -113 323 -195 495 -236 48 -11 52 -14 52 -40 0 -19 6
-31 19 -35 16 -5 18 -13 14 -44 -7 -49 30 -201 64 -263 27 -50 95 -104 192
-152 93 -47 342 -60 447 -23 94 34 197 93 238 137 55 59 75 123 77 255 2 108
10 135 38 135 54 0 330 109 523 207 205 103 304 175 426 306 64 70 152 186
152 202 0 3 10 19 22 35 15 21 30 30 50 30 50 0 91 25 181 109 49 44 91 81 95
81 100 6 208 22 238 36 63 30 112 88 158 187 38 83 51 100 129 170 53 49 94
95 108 123 26 54 59 259 59 368 0 75 -3 85 -52 190 l-53 111 2 140 c3 171 -6
209 -83 330 -73 118 -81 134 -94 191 -17 76 -9 91 52 99 64 9 144 35 234 76
38 17 96 42 129 55 130 53 175 106 228 271 20 61 50 142 68 180 31 65 32 74
35 218 1 83 -2 174 -7 202 -21 110 -118 200 -280 262 -96 37 -117 51 -219 153
-58 58 -87 79 -128 92 -79 27 -188 23 -292 -9 -47 -15 -119 -35 -160 -45 -134
-32 -187 -59 -247 -121 -46 -49 -66 -103 -66 -182 0 -37 -3 -70 -7 -72 -9 -5
-111 35 -185 72 -55 28 -146 96 -185 138 -35 38 -125 90 -196 114 -33 11 -117
27 -185 35 -79 9 -159 26 -222 47 l-98 32 -77 -16 c-90 -20 -206 -73 -278
-127 l-51 -39 -53 51 c-69 65 -134 94 -243 108 -48 6 -123 24 -166 40 -93 34
-212 60 -276 60 -61 0 -106 -20 -168 -76 -102 -92 -204 -136 -377 -164 -63
-11 -137 -26 -165 -34 -74 -23 -164 -80 -216 -138 -46 -52 -69 -57 -69 -16 0
31 -77 172 -122 223 -48 54 -129 98 -213 115 -33 7 -97 32 -141 56 -140 76
-245 101 -347 84z m1413 -3180 c0 -13 7 -20 20 -20 15 0 20 -7 20 -28 0 -21 7
-32 28 -43 39 -20 43 -30 24 -61 -15 -25 -15 -29 2 -47 24 -26 20 -31 -83
-105 -66 -47 -83 -55 -99 -47 -14 7 -24 6 -38 -4 -11 -8 -30 -15 -43 -15 -21
0 -23 3 -17 30 6 30 5 31 -29 24 -31 -5 -36 -3 -44 19 -5 14 -14 28 -19 31 -6
3 -8 15 -5 27 4 14 1 20 -8 19 -56 -8 -68 32 -21 72 17 14 26 31 24 44 -4 30
98 92 168 103 28 4 53 11 57 15 3 3 19 6 35 6 21 0 28 -5 28 -20z m1957 -11
c5 -16 12 -20 32 -16 30 6 61 -8 61 -27 0 -7 11 -18 25 -24 17 -8 25 -20 25
-37 0 -16 6 -25 15 -25 8 0 15 -6 16 -12 0 -7 1 -40 2 -73 l1 -60 -62 -46
c-58 -44 -65 -46 -127 -46 -54 0 -65 2 -70 18 -4 11 -12 19 -19 19 -8 0 -19 6
-26 14 -6 8 -21 16 -32 18 -16 2 -25 18 -40 63 -24 77 -17 141 18 157 13 6 24
18 24 25 0 14 111 72 138 73 8 0 16 -9 19 -21z"/>
<path d="M11990 13770 c-69 -37 -107 -135 -81 -212 6 -19 29 -52 51 -73 38
-37 45 -40 108 -43 57 -3 72 0 102 20 97 65 98 241 1 305 -44 29 -130 31 -181
3z"/>
<path d="M13700 13713 c-79 -40 -113 -93 -118 -181 -4 -80 13 -120 71 -166 36
-29 45 -31 116 -31 69 0 82 3 119 29 117 80 114 273 -4 342 -66 39 -119 41
-184 7z"/>
<path d="M6639 13183 c-11 -3 -18 -26 -25 -81 -6 -42 -9 -79 -8 -81 11 -13 81
92 98 147 7 19 4 22 -21 21 -15 -1 -35 -3 -44 -6z"/>
<path d="M12775 13148 c-82 -86 -180 -99 -278 -38 -56 35 -72 32 -36 -6 64
-68 174 -85 265 -39 61 30 119 88 111 109 -9 24 -19 20 -62 -26z"/>
<path d="M3092 13133 c-37 -13 -42 -18 -36 -36 15 -52 62 -123 93 -144 41 -28
66 -30 56 -5 -4 9 -18 59 -33 110 -14 50 -28 92 -32 91 -3 0 -24 -7 -48 -16z"/>
<path d="M4975 13109 c-43 -45 -105 -78 -146 -79 -47 0 -127 30 -160 61 -31
29 -59 33 -59 8 0 -23 78 -87 126 -103 106 -36 207 -8 283 79 61 69 20 101
-44 34z"/>
<path d="M25536 12356 c-18 -20 -50 -70 -72 -111 -36 -69 -41 -75 -71 -75 -47
0 -63 -37 -63 -142 0 -74 2 -85 21 -98 12 -8 27 -21 35 -27 15 -15 44 -17 44
-4 0 10 50 45 55 39 2 -2 -3 -23 -11 -47 -11 -33 -12 -46 -3 -57 18 -22 68
-17 116 11 23 14 43 21 43 16 0 -5 -4 -13 -10 -16 -14 -9 -13 -48 2 -63 19
-19 36 -15 109 23 38 19 72 35 78 35 5 0 -1 -19 -14 -42 -61 -106 -3 -151 106
-83 22 15 43 25 45 22 2 -2 -10 -32 -28 -67 -29 -59 -30 -65 -16 -89 11 -20
21 -25 44 -23 29 3 81 34 123 73 12 12 25 19 27 16 13 -12 15 -157 4 -210 -39
-187 -214 -389 -389 -447 -113 -37 -216 -46 -315 -27 -134 27 -226 73 -325
166 -25 23 -47 38 -50 33 -112 -164 -310 -352 -519 -494 -21 -14 -21 -16 -6
-29 36 -29 55 -95 55 -186 0 -48 -3 -110 -6 -138 l-7 -52 56 -6 c66 -7 106
-28 132 -71 27 -44 24 -202 -4 -306 -12 -41 -20 -75 -19 -76 1 -1 27 4 57 12
111 29 182 11 198 -50 10 -34 3 -97 -17 -148 -19 -51 25 -35 105 37 6 5 39 32
72 59 70 58 212 201 298 301 149 172 425 620 533 865 38 85 129 339 171 479
60 195 77 470 36 551 -32 60 -148 163 -236 208 -74 38 -88 42 -156 42 -42 0
-85 -5 -97 -11 -24 -12 -90 -80 -115 -117 -14 -22 -15 -21 -49 47 l-35 69 31
62 c17 34 45 82 61 107 32 48 36 58 20 68 -6 4 -26 -9 -44 -29z"/>
<path d="M6281 12332 c-185 -220 -414 -373 -689 -461 l-114 -36 6 -84 c4 -47
7 -85 9 -86 1 0 69 -20 150 -43 146 -41 387 -136 387 -153 0 -9 -10 -27 -141
-249 -125 -213 -192 -306 -292 -408 -138 -139 -296 -240 -470 -301 -49 -17
-113 -34 -142 -37 -75 -9 -182 17 -289 71 -50 24 -91 43 -93 42 -1 -2 9 -185
22 -407 14 -223 25 -416 25 -430 0 -22 4 -21 53 27 49 48 64 57 95 54 17 -1
15 -59 -3 -111 -20 -58 -20 -59 19 -21 20 19 42 31 52 29 41 -7 24 -135 -32
-251 -13 -28 -24 -53 -24 -55 0 -3 25 19 55 47 36 34 61 51 71 47 9 -3 18 -6
20 -6 2 0 4 -18 4 -40 0 -26 -13 -64 -40 -115 -22 -42 -36 -74 -31 -71 5 4 16
-1 25 -9 16 -17 13 -33 -20 -98 -54 -105 -209 -271 -339 -362 -92 -64 -278
-162 -395 -207 -116 -46 -102 -52 -154 67 -73 167 -142 414 -169 604 l-12 84
-210 0 c-193 -1 -439 11 -492 22 -19 5 -22 13 -27 107 -3 57 -15 254 -26 438
-11 184 -20 372 -20 417 0 80 1 83 25 89 14 3 31 4 39 1 10 -4 16 5 20 28 5
27 13 36 41 45 31 10 35 16 35 45 0 40 29 65 73 65 24 0 28 3 22 18 -24 57 -3
92 57 92 16 0 28 4 28 9 0 5 3 16 6 24 3 9 -3 16 -15 20 -12 3 -21 13 -21 23
0 15 8 16 78 10 42 -3 169 -22 281 -41 113 -19 311 -49 440 -65 130 -17 254
-33 276 -36 48 -8 47 -6 -70 76 -141 100 -289 254 -381 395 -99 152 -190 325
-181 347 10 27 335 116 566 155 l103 18 -6 50 c-3 27 -6 59 -6 70 0 18 -12 23
-84 38 -293 60 -539 192 -763 410 l-91 89 -44 -20 c-49 -22 -97 -66 -185 -167
-194 -225 -268 -382 -358 -760 -20 -82 -42 -172 -50 -199 -8 -26 -15 -56 -15
-65 0 -9 -14 -25 -30 -35 -62 -36 -228 -165 -319 -247 -227 -204 -490 -575
-590 -834 -157 -402 -163 -884 -15 -1178 58 -115 95 -167 180 -250 198 -196
436 -307 718 -336 54 -5 100 -12 102 -14 3 -2 -2 -103 -11 -223 -9 -121 -14
-275 -13 -344 l3 -125 73 -10 c45 -6 77 -16 83 -25 5 -8 7 -46 4 -85 -6 -88
-15 -291 -35 -825 -5 -140 -12 -313 -15 -385 -3 -71 -7 -195 -10 -275 -3 -80
-9 -257 -15 -395 -5 -137 -12 -313 -15 -390 -3 -77 -7 -192 -10 -255 -12 -288
-15 -385 -20 -520 -3 -80 -7 -197 -10 -260 -13 -323 -17 -580 -9 -581 5 -1 25
-3 44 -4 19 -2 100 -12 180 -24 80 -11 203 -25 274 -31 310 -24 1043 -1 1092
34 21 16 29 152 43 696 28 1053 37 1337 66 1960 16 348 65 982 76 995 11 11
673 14 685 2 9 -8 22 -202 59 -822 38 -656 66 -1014 101 -1285 27 -217 75
-535 104 -705 17 -93 51 -296 76 -450 24 -154 48 -291 52 -305 6 -20 14 -25
42 -26 19 -1 105 -5 190 -9 175 -9 359 2 685 40 344 40 516 78 566 124 l28 26
-24 185 c-82 635 -184 1411 -325 2475 -64 481 -137 1006 -145 1042 -4 19 0 22
58 28 91 10 268 42 297 53 52 20 54 29 47 210 -11 291 -60 727 -113 1022 -32
176 -93 423 -144 582 -22 69 -43 146 -46 171 l-6 45 53 7 c446 56 822 207
1179 474 139 103 393 354 514 506 192 242 340 489 457 762 48 112 149 410 149
440 0 31 -42 72 -139 137 -112 76 -265 154 -361 184 -154 50 -329 82 -440 82
-43 0 -46 -2 -75 -48 -55 -88 -182 -236 -289 -340 -253 -243 -531 -400 -826
-466 -86 -19 -253 -37 -261 -28 -3 4 -16 59 -29 122 -71 358 -221 778 -318
890 -60 71 -176 105 -211 62z"/>
<path d="M14455 11678 c-7 -22 -25 -225 -35 -403 -5 -93 -15 -420 -21 -725
-12 -602 -3 -1066 28 -1545 18 -278 23 -794 10 -936 l-9 -87 -76 -11 c-514
-78 -983 -105 -1422 -82 -217 12 -367 25 -375 33 -8 8 -8 179 4 748 16 837 24
942 116 1515 14 88 34 216 45 285 88 564 123 731 216 1039 19 63 33 116 31
117 -2 2 -43 -13 -93 -32 -49 -20 -110 -44 -136 -54 -25 -10 -105 -44 -177
-76 -125 -56 -132 -61 -141 -95 -16 -57 -91 -417 -170 -808 -116 -579 -158
-736 -270 -1001 -76 -178 -246 -442 -333 -516 -39 -33 -28 1 -152 -459 -117
-434 -158 -576 -225 -785 -38 -118 -108 -363 -155 -543 -85 -324 -119 -447
-192 -680 l-37 -117 35 -30 c130 -114 360 -219 638 -290 l43 -11 -6 -207 c-4
-114 -11 -308 -16 -432 -36 -847 -64 -1998 -50 -2015 33 -39 236 -100 440
-132 90 -14 175 -18 386 -18 l271 0 44 34 45 35 87 430 c109 539 129 649 166
911 27 190 72 602 86 795 3 41 12 129 19 195 8 66 18 155 22 197 l6 78 227 -2
c124 0 269 2 323 7 l96 7 27 -88 c85 -281 230 -656 326 -847 210 -418 523
-811 904 -1132 129 -109 181 -145 207 -145 38 0 134 41 203 87 214 141 471
396 609 604 27 41 58 87 69 102 11 17 17 37 13 51 -3 12 -51 67 -107 122 -180
177 -315 364 -495 686 -88 159 -294 582 -294 605 0 3 69 3 153 -1 283 -13 508
24 790 130 37 14 67 30 67 35 0 4 15 12 33 17 l32 8 0 70 c-2 186 -38 452
-136 999 -32 181 -133 630 -145 644 -1 2 -42 -25 -89 -59 -103 -74 -194 -130
-212 -130 -7 0 -33 18 -57 40 -23 22 -47 36 -51 32 -5 -4 -5 -1 -1 5 4 7 -10
34 -33 63 -85 108 -199 339 -186 379 3 9 20 26 38 39 41 27 188 175 219 219
13 18 25 32 28 32 7 -1 84 -97 226 -283 68 -89 139 -179 158 -201 20 -22 36
-46 36 -53 0 -12 31 -51 157 -199 24 -29 48 -53 54 -53 57 0 392 312 563 524
60 74 159 223 194 291 67 132 133 398 151 611 22 249 -31 480 -161 707 -169
296 -577 670 -1113 1022 -44 29 -127 83 -185 121 -90 60 -267 175 -294 191 -8
5 -1 -273 9 -377 2 -19 6 -89 10 -155 8 -170 36 -467 55 -600 6 -38 21 -146
34 -240 14 -93 41 -278 61 -410 l36 -240 56 -57 c34 -34 53 -62 50 -70 -18
-38 -55 -92 -65 -96 -7 -2 -17 9 -22 24 -31 79 -80 162 -118 198 -109 101
-268 356 -350 562 -94 236 -140 416 -253 974 -43 217 -98 484 -122 593 l-42
199 -85 33 c-47 18 -101 38 -120 45 -19 7 -51 21 -71 31 -43 22 -48 23 -54 7z"/>
<path d="M11660 10968 c-517 -348 -811 -639 -1115 -1103 -145 -222 -275 -522
-320 -740 -26 -124 -31 -297 -12 -372 54 -207 240 -389 449 -438 94 -22 251
-19 331 5 170 53 323 217 501 539 42 76 56 110 51 128 -3 13 -1 40 5 61 6 20
17 82 24 137 8 55 30 206 50 335 20 129 38 250 40 269 l5 34 -35 -34 c-20 -19
-46 -52 -59 -74 -29 -50 -185 -515 -185 -552 0 -16 -3 -39 -7 -51 -5 -21 -10
-23 -37 -18 -17 4 -39 8 -48 9 -9 1 -15 4 -12 8 2 4 -22 17 -54 30 -111 45
-238 118 -435 251 -43 29 -83 52 -90 50 -7 -2 -9 0 -5 4 5 4 -3 22 -17 40 -14
18 -25 36 -25 40 0 22 223 345 339 489 120 151 307 324 444 412 84 54 230 129
270 138 15 4 27 10 27 14 0 3 3 38 6 76 6 86 21 379 20 382 -1 1 -49 -30 -106
-69z"/>
<path d="M20835 10993 c-139 -31 -351 -128 -386 -176 -8 -11 34 -87 79 -148
18 -24 64 -87 103 -139 177 -242 670 -865 833 -1054 84 -97 83 -93 34 -106
-75 -20 -268 -100 -397 -165 -80 -39 -163 -72 -226 -88 -120 -32 -405 -87
-446 -87 -25 0 -32 -6 -41 -31 -16 -46 -59 -122 -89 -157 -57 -65 -115 -75
-201 -31 -48 25 -66 52 -89 141 -10 39 -20 73 -22 74 -2 2 -25 -15 -53 -38
-116 -96 -220 -104 -260 -20 -17 35 -16 88 2 197 7 39 6 39 -12 24 -28 -24
-113 -65 -162 -78 -31 -9 -53 -9 -83 -1 -35 10 -44 18 -61 58 -19 42 -20 53
-10 116 6 39 9 72 7 74 -2 2 -25 -6 -51 -19 -141 -70 -213 -405 -145 -670 73
-282 262 -478 560 -578 199 -68 525 -99 726 -71 250 36 591 175 840 343 33 22
106 64 163 93 113 58 165 95 230 164 151 157 186 189 243 223 35 20 68 37 74
37 5 0 37 -26 70 -58 256 -243 521 -450 891 -695 l191 -126 91 -278 c51 -153
110 -354 132 -448 22 -93 59 -244 80 -335 75 -313 89 -376 120 -550 20 -111
37 -179 46 -186 8 -6 74 -20 147 -30 181 -26 616 -26 792 0 253 37 487 101
638 177 130 65 186 113 187 160 0 38 -114 580 -156 739 -130 492 -220 740
-336 918 l-40 62 -93 0 -92 0 -74 97 c-140 185 -345 374 -582 537 l-97 68
-108 -26 c-133 -31 -214 -45 -270 -48 -24 -1 -45 -5 -47 -8 -3 -4 2 -28 11
-54 14 -41 36 -63 197 -200 187 -158 447 -401 447 -417 0 -5 -19 -9 -42 -9
-24 0 -100 -7 -170 -16 l-126 -16 -74 51 c-40 28 -158 108 -263 179 -104 71
-210 143 -235 160 -108 73 -294 222 -459 366 -198 173 -603 578 -815 816 -27
30 -73 80 -101 110 -28 30 -93 105 -145 165 -52 61 -97 112 -100 115 -3 3 -65
75 -136 160 -245 292 -502 618 -549 698 -11 18 -25 32 -31 32 -7 0 -18 2 -26
4 -7 2 -22 2 -33 -1z m3933 -3871 c7 -22 12 -55 12 -73 0 -19 5 -52 11 -74 27
-95 45 -194 38 -213 -6 -14 -26 -24 -81 -36 -134 -31 -217 -41 -230 -28 -6 6
-24 73 -39 149 -16 76 -38 169 -50 207 -13 45 -17 72 -11 78 6 6 75 17 153 24
79 8 145 17 147 19 12 12 40 -18 50 -53z"/>
<path d="M23906 5198 c-8 -18 -16 -29 -16 -24 0 6 -39 -31 -87 -80 -49 -50
-107 -106 -131 -125 l-42 -35 -118 1 c-106 1 -123 4 -182 30 -36 16 -86 42
-113 58 -26 16 -65 31 -87 34 -34 5 -49 0 -102 -34 -110 -70 -140 -86 -202
-109 -34 -12 -60 -26 -60 -31 4 -24 49 -238 79 -373 19 -85 50 -229 70 -320
31 -141 59 -270 117 -535 18 -85 19 -85 106 -85 156 0 518 51 791 111 74 16
136 29 137 29 2 0 1 21 -2 48 -17 174 -104 1259 -103 1299 1 53 -21 173 -32
173 -3 0 -14 -15 -23 -32z"/>
<path d="M20295 5173 c-11 -2 -50 -18 -88 -35 -65 -31 -67 -33 -62 -62 5 -24
-75 -1050 -100 -1293 -4 -43 -2 -53 12 -57 49 -15 467 -89 603 -107 169 -22
400 -36 400 -24 0 4 29 140 65 303 73 329 107 487 160 732 19 91 40 185 46
209 5 24 9 44 7 45 -2 2 -19 13 -38 26 -19 13 -66 52 -103 87 -38 35 -80 68
-93 73 -32 13 -81 -7 -143 -58 -125 -103 -224 -147 -314 -139 -85 8 -125 39
-202 155 -91 138 -106 153 -150 145z"/>
<path d="M16285 4082 c-6 -4 -65 -70 -130 -147 -66 -76 -184 -205 -262 -285
l-142 -145 -1 -106 c0 -115 -7 -144 -64 -263 -84 -175 -151 -356 -162 -440 -5
-37 -3 -47 10 -52 28 -11 97 40 201 148 111 114 233 254 560 643 61 72 151
179 202 238 57 66 93 116 93 130 0 22 -105 132 -229 240 -56 49 -60 51 -76 39z"/>
<path d="M6890 3079 c-41 -4 -201 -10 -355 -14 -154 -3 -290 -8 -302 -11 -22
-4 -23 -7 -22 -132 0 -179 11 -261 35 -279 16 -13 105 -14 669 -9 640 5 772
12 842 41 27 11 34 20 31 37 -6 43 -194 123 -430 183 -139 35 -192 61 -272
132 -51 45 -78 62 -96 61 -14 -1 -59 -5 -100 -9z"/>
<path d="M3142 2987 c-79 -71 -128 -94 -262 -127 -126 -31 -266 -78 -345 -117
-116 -57 -126 -78 -53 -108 71 -28 226 -34 875 -35 l632 0 12 23 c8 15 13 83
13 207 l1 185 -100 2 c-139 3 -545 22 -630 29 l-70 6 -73 -65z"/>
<path d="M19979 2963 c-15 -4 -54 -73 -95 -169 -11 -26 -21 -32 -70 -43 -58
-13 -336 -105 -411 -136 -54 -22 -58 -50 -10 -70 40 -16 278 -51 452 -65 72
-6 258 -13 415 -16 347 -8 540 12 608 62 2 1 17 67 33 146 29 146 36 213 21
222 -5 3 -121 10 -258 16 -280 12 -485 27 -553 40 -67 13 -114 17 -132 13z"/>
<path d="M23960 2924 c-71 -11 -610 -44 -732 -44 -59 0 -62 -15 -28 -190 16
-83 32 -160 35 -170 8 -27 69 -47 196 -66 95 -14 165 -16 424 -11 171 3 366
11 435 17 178 16 384 47 426 65 45 19 42 44 -8 67 -48 23 -348 122 -415 138
l-53 12 -46 99 -47 99 -51 -1 c-28 -1 -89 -7 -136 -15z"/>
<path d="M11575 2904 c-16 -14 -49 -43 -72 -64 -57 -50 -107 -73 -245 -109
-222 -59 -431 -142 -445 -177 -9 -25 18 -43 92 -61 61 -14 164 -17 765 -20
432 -2 700 0 709 6 19 12 30 111 30 277 1 129 0 132 -21 137 -13 4 -108 6
-213 7 -175 0 -469 14 -540 25 -22 3 -38 -2 -60 -21z"/>
</g>
</svg>
